<svg id="Capa_1" enable-background="new 0 0 512 512" height="512" viewBox="0 0 512 512" width="512" xmlns="http://www.w3.org/2000/svg"><g><path d="m475.573 231.554c-2.118-106.395-56.587-169.266-138.275-188.615-18.8-4.453-38.445 2.735-49.748 18.404-3.389 4.698-5.843 9.99-7.373 15.577-2.34 8.545-9.121 15.297-17.677 17.611v279.878c0 3.584-2.916 6.5-6.5 6.5s-6.5-2.916-6.5-6.5v-279.877c-8.555-2.314-15.337-9.066-17.677-17.611-1.53-5.587-3.984-10.878-7.373-15.577-11.303-15.67-30.947-22.858-49.748-18.404-52.332 12.396-93.461 42.684-116.844 90.803.946-.005 1.885-.017 2.836-.017 66.754 0 120.868 12.869 120.868 28.743s-54.114 28.743-120.868 28.743c-7.014 0-13.877-.15-20.564-.423-2.141 12.801-3.417 26.371-3.704 40.766-.035 1.78-.053 3.564-.053 5.351 0 17.736 1.76 35.095 5.113 51.947 56.311-31.871 107.445-46.797 115.206-33.355 7.937 13.747-32.493 51.949-90.303 85.326-2.399 1.385-4.786 2.728-7.166 4.052 9.039 20.46 20.581 39.751 34.262 57.575 2.444-2.548 4.933-5.101 7.486-7.653 47.202-47.202 94.566-76.367 105.791-65.142s-17.94 58.589-65.142 105.791c-3.022 3.022-6.045 5.968-9.059 8.837 34.5 30.537 76.585 53.978 123.439 67.716 14.572-4.273 28.677-9.493 42.243-15.564-26.244-32.661-39.649-60.199-31.441-68.406 9.183-9.184 42.56 8.678 80.244 41.324 19.09-12.878 36.54-27.664 52.005-44.057-4.619-2.477-9.285-5.062-13.986-7.776-57.81-33.377-98.24-71.579-90.303-85.326 7.937-13.748 61.236 2.165 119.046 35.542 7.033 4.06 13.802 8.193 20.265 12.343 12.117-19.342 21.857-40.083 28.851-61.897-8.693-4.331-17.654-9.138-26.727-14.376-57.81-33.377-98.24-71.579-90.303-85.326 7.937-13.748 61.236 2.165 119.046 35.542 3.294 1.902 6.524 3.821 9.7 5.749.647-7.545.986-15.169.986-22.866 0-1.788-.018-3.572-.053-5.352zm-301.052-118.747c-13.601 3.644-26.557-.602-28.937-9.484s6.717-19.038 20.318-22.682c13.601-3.645 26.557.602 28.937 9.484s-6.717 19.037-20.318 22.682zm6.287 109.111c-1.22-7.503 7.671-17.214 19.859-21.69s23.057-2.023 24.277 5.481c1.22 7.503-7.671 17.214-19.859 21.69s-23.058 2.022-24.277-5.481zm27.319 76.303c-11.68 4.29-22.097 1.938-23.266-5.252s7.352-16.497 19.032-20.787 22.097-1.938 23.266 5.252c1.169 7.191-7.352 16.497-19.032 20.787zm7.581 146.29c-10.972 8.787-22.974 10.007-26.807 2.724s1.954-20.31 12.926-29.098c10.972-8.787 22.974-10.007 26.807-2.724s-1.954 20.311-12.926 29.098zm118.193-158.698c-5.04 6.997-19.961 7.654-33.328 1.469-13.366-6.186-20.117-16.872-15.077-23.869s19.961-7.654 33.327-1.469c13.367 6.186 20.117 16.872 15.078 23.869zm53.137-133.287c-6.513 11.28-25.794 12.34-43.067 2.368s-25.995-27.201-19.483-38.481c6.513-11.28 25.794-12.34 43.067-2.368 17.273 9.973 25.995 27.201 19.483 38.481z" fill="#68ca44"/><g><g><path d="m101.352 241.986c0-18.18 1.817-35.886 5.236-52.921-14.152 1.382-29.646 2.147-45.894 2.147-7.014 0-13.877-.15-20.564-.423-2.141 12.801-3.417 26.371-3.704 40.765-.035 1.78-.053 3.564-.053 5.351 0 17.736 1.76 35.095 5.113 51.947 21.65-12.254 42.532-21.999 60.48-28.594-.404-6.032-.614-12.125-.614-18.272z" fill="#4fc123"/></g><g><path d="m122.529 137.769c6.903-16.054 15.346-31.133 25.125-44.996.41-.642.863-1.276 1.365-1.895 13.31-18.485 29.006-34.751 46.573-48.229-6.764-1.409-13.885-1.368-20.889.291-52.332 12.396-93.461 42.684-116.844 90.803.946-.005 1.885-.017 2.836-.017 22.597-.001 43.742 1.476 61.834 4.043z" fill="#4fc123"/></g><g><path d="m207.308 449.718c-8.136 3.647-15.547 2.952-18.408-2.483-1.59-3.021-1.503-7.034-.1-11.318-8.856-7.366-17.182-15.472-24.923-24.22-6.834 7.805-14.288 15.779-22.258 23.749-3.022 3.022-6.045 5.968-9.059 8.837 34.501 30.538 76.586 53.979 123.44 67.717 14.572-4.273 28.677-9.493 42.243-15.564-4.143-5.156-7.964-10.183-11.432-15.027-28.715-4.764-55.596-15.754-79.503-31.691z" fill="#4fc123"/></g><g><path d="m110.613 311.975c-12.879 9.56-27.853 19.398-44.223 28.849-2.399 1.385-4.786 2.728-7.166 4.052 9.039 20.46 20.581 39.751 34.262 57.575 2.444-2.548 4.933-5.101 7.486-7.653 10.527-10.527 21.062-20.154 31.202-28.639-9.076-16.843-16.358-35.012-21.561-54.184z" fill="#4fc123"/></g></g><g><path d="m256 381.909c-4.142 0-7.5-3.358-7.5-7.5v-366.909c0-4.142 3.358-7.5 7.5-7.5s7.5 3.358 7.5 7.5v366.909c0 4.142-3.358 7.5-7.5 7.5z" fill="#97d729"/></g></g></svg>